<svg width="200" height="200" viewBox="0 0 200 200" fill="none" xmlns="http://www.w3.org/2000/svg">
<mask id="path-1-outside-1_980_34" maskUnits="userSpaceOnUse" x="67" y="94" width="65" height="13" fill="black">
<rect fill="white" x="67" y="94" width="65" height="13"/>
<path d="M71.5298 95.5455L73.815 102.729H73.9027L76.1925 95.5455H78.4084L75.1491 105H72.5732L69.3093 95.5455H71.5298ZM82.9856 105.129C82.2962 105.129 81.6822 105.011 81.1436 104.774C80.6081 104.534 80.185 104.204 79.8741 103.786C79.5663 103.364 79.4078 102.878 79.3986 102.327H81.4114C81.4237 102.558 81.4991 102.761 81.6376 102.936C81.7792 103.109 81.9669 103.243 82.2008 103.338C82.4347 103.433 82.6979 103.481 82.9902 103.481C83.2949 103.481 83.5642 103.427 83.7981 103.32C84.032 103.212 84.2151 103.063 84.3475 102.872C84.4798 102.681 84.546 102.461 84.546 102.212C84.546 101.959 84.4752 101.736 84.3336 101.542C84.1951 101.345 83.9951 101.191 83.7335 101.081C83.475 100.97 83.1672 100.914 82.8102 100.914H81.9284V99.4464H82.8102C83.1118 99.4464 83.378 99.3941 83.6088 99.2894C83.8427 99.1848 84.0243 99.0401 84.1536 98.8555C84.2828 98.6677 84.3475 98.4492 84.3475 98.1999C84.3475 97.9629 84.2905 97.7552 84.1767 97.5767C84.0659 97.3951 83.9089 97.2536 83.7058 97.152C83.5057 97.0504 83.2718 96.9996 83.0041 96.9996C82.7333 96.9996 82.4855 97.0489 82.2608 97.1474C82.0362 97.2428 81.8561 97.3797 81.7207 97.5582C81.5853 97.7367 81.513 97.946 81.5037 98.1861H79.5879C79.5971 97.6413 79.7525 97.1612 80.0542 96.7457C80.3558 96.3303 80.762 96.0056 81.2729 95.7717C81.7869 95.5347 82.367 95.4162 83.0133 95.4162C83.6658 95.4162 84.2367 95.5347 84.726 95.7717C85.2154 96.0086 85.5955 96.3287 85.8663 96.7319C86.1402 97.132 86.2756 97.5813 86.2725 98.0799C86.2756 98.6093 86.111 99.0509 85.7786 99.4048C85.4493 99.7588 85.0199 99.9834 84.4906 100.079V100.153C85.1861 100.242 85.7155 100.484 86.0787 100.877C86.4449 101.268 86.6265 101.758 86.6234 102.346C86.6265 102.884 86.4711 103.363 86.1571 103.781C85.8463 104.2 85.417 104.529 84.8691 104.769C84.3213 105.009 83.6935 105.129 82.9856 105.129ZM89.99 95.5455L91.8966 98.7678H91.9704L93.8863 95.5455H96.1437L93.2584 100.273L96.2084 105H93.9094L91.9704 101.773H91.8966L89.9577 105H87.6679L90.627 100.273L87.7233 95.5455H89.99ZM97.4086 105V95.5455H99.4076V103.352H103.461V105H97.4086ZM106.655 105H104.513L107.777 95.5455H110.353L113.612 105H111.47L109.102 97.706H109.028L106.655 105ZM106.522 101.284H111.581V102.844H106.522V101.284ZM114.75 105V95.5455H118.536C119.232 95.5455 119.812 95.6486 120.276 95.8548C120.741 96.061 121.09 96.3472 121.324 96.7134C121.558 97.0766 121.675 97.4951 121.675 97.9691C121.675 98.3384 121.601 98.6631 121.454 98.9432C121.306 99.2202 121.103 99.4479 120.844 99.6264C120.589 99.8018 120.296 99.9265 119.967 100V100.093C120.327 100.108 120.664 100.21 120.978 100.397C121.295 100.585 121.552 100.848 121.749 101.187C121.946 101.522 122.044 101.922 122.044 102.387C122.044 102.889 121.92 103.337 121.671 103.73C121.424 104.121 121.06 104.431 120.576 104.658C120.093 104.886 119.498 105 118.79 105H114.75ZM116.749 103.366H118.379C118.936 103.366 119.342 103.26 119.598 103.047C119.853 102.832 119.981 102.546 119.981 102.189C119.981 101.927 119.918 101.696 119.792 101.496C119.665 101.296 119.485 101.139 119.252 101.025C119.021 100.911 118.745 100.854 118.425 100.854H116.749V103.366ZM116.749 99.5018H118.231C118.505 99.5018 118.748 99.4541 118.961 99.3587C119.176 99.2602 119.345 99.1217 119.468 98.9432C119.595 98.7647 119.658 98.5508 119.658 98.3015C119.658 97.9599 119.536 97.6844 119.293 97.4751C119.053 97.2659 118.711 97.1612 118.268 97.1612H116.749V99.5018ZM128.474 98.2646C128.437 97.8922 128.279 97.6029 127.999 97.3967C127.719 97.1905 127.338 97.0874 126.858 97.0874C126.532 97.0874 126.257 97.1335 126.032 97.2259C125.807 97.3151 125.635 97.4397 125.515 97.5998C125.398 97.7598 125.339 97.9414 125.339 98.1445C125.333 98.3138 125.369 98.4615 125.446 98.5877C125.526 98.7139 125.635 98.8232 125.773 98.9155C125.912 99.0047 126.072 99.0832 126.254 99.1509C126.435 99.2156 126.629 99.271 126.835 99.3171L127.685 99.5202C128.097 99.6126 128.476 99.7357 128.82 99.8896C129.165 100.043 129.464 100.233 129.716 100.457C129.968 100.682 130.164 100.947 130.302 101.251C130.444 101.556 130.516 101.905 130.519 102.299C130.516 102.878 130.368 103.38 130.076 103.804C129.787 104.226 129.368 104.554 128.82 104.788C128.276 105.018 127.618 105.134 126.849 105.134C126.086 105.134 125.421 105.017 124.855 104.783C124.292 104.549 123.851 104.203 123.534 103.744C123.221 103.283 123.056 102.712 123.04 102.032H124.975C124.996 102.349 125.087 102.613 125.247 102.826C125.41 103.035 125.627 103.193 125.898 103.301C126.172 103.406 126.481 103.458 126.826 103.458C127.165 103.458 127.458 103.409 127.708 103.31C127.96 103.212 128.156 103.075 128.294 102.9C128.433 102.724 128.502 102.522 128.502 102.295C128.502 102.082 128.439 101.904 128.312 101.759C128.189 101.615 128.008 101.491 127.768 101.39C127.531 101.288 127.24 101.196 126.895 101.113L125.866 100.854C125.069 100.661 124.439 100.357 123.978 99.945C123.516 99.5326 123.287 98.977 123.29 98.2784C123.287 97.706 123.439 97.2058 123.747 96.7781C124.058 96.3503 124.484 96.0163 125.026 95.7763C125.567 95.5362 126.183 95.4162 126.872 95.4162C127.574 95.4162 128.186 95.5362 128.71 95.7763C129.236 96.0163 129.645 96.3503 129.938 96.7781C130.23 97.2058 130.381 97.7013 130.39 98.2646H128.474Z"/>
</mask>
<path d="M71.5298 95.5455L73.815 102.729H73.9027L76.1925 95.5455H78.4084L75.1491 105H72.5732L69.3093 95.5455H71.5298ZM82.9856 105.129C82.2962 105.129 81.6822 105.011 81.1436 104.774C80.6081 104.534 80.185 104.204 79.8741 103.786C79.5663 103.364 79.4078 102.878 79.3986 102.327H81.4114C81.4237 102.558 81.4991 102.761 81.6376 102.936C81.7792 103.109 81.9669 103.243 82.2008 103.338C82.4347 103.433 82.6979 103.481 82.9902 103.481C83.2949 103.481 83.5642 103.427 83.7981 103.32C84.032 103.212 84.2151 103.063 84.3475 102.872C84.4798 102.681 84.546 102.461 84.546 102.212C84.546 101.959 84.4752 101.736 84.3336 101.542C84.1951 101.345 83.9951 101.191 83.7335 101.081C83.475 100.97 83.1672 100.914 82.8102 100.914H81.9284V99.4464H82.8102C83.1118 99.4464 83.378 99.3941 83.6088 99.2894C83.8427 99.1848 84.0243 99.0401 84.1536 98.8555C84.2828 98.6677 84.3475 98.4492 84.3475 98.1999C84.3475 97.9629 84.2905 97.7552 84.1767 97.5767C84.0659 97.3951 83.9089 97.2536 83.7058 97.152C83.5057 97.0504 83.2718 96.9996 83.0041 96.9996C82.7333 96.9996 82.4855 97.0489 82.2608 97.1474C82.0362 97.2428 81.8561 97.3797 81.7207 97.5582C81.5853 97.7367 81.513 97.946 81.5037 98.1861H79.5879C79.5971 97.6413 79.7525 97.1612 80.0542 96.7457C80.3558 96.3303 80.762 96.0056 81.2729 95.7717C81.7869 95.5347 82.367 95.4162 83.0133 95.4162C83.6658 95.4162 84.2367 95.5347 84.726 95.7717C85.2154 96.0086 85.5955 96.3287 85.8663 96.7319C86.1402 97.132 86.2756 97.5813 86.2725 98.0799C86.2756 98.6093 86.111 99.0509 85.7786 99.4048C85.4493 99.7588 85.0199 99.9834 84.4906 100.079V100.153C85.1861 100.242 85.7155 100.484 86.0787 100.877C86.4449 101.268 86.6265 101.758 86.6234 102.346C86.6265 102.884 86.4711 103.363 86.1571 103.781C85.8463 104.2 85.417 104.529 84.8691 104.769C84.3213 105.009 83.6935 105.129 82.9856 105.129ZM89.99 95.5455L91.8966 98.7678H91.9704L93.8863 95.5455H96.1437L93.2584 100.273L96.2084 105H93.9094L91.9704 101.773H91.8966L89.9577 105H87.6679L90.627 100.273L87.7233 95.5455H89.99ZM97.4086 105V95.5455H99.4076V103.352H103.461V105H97.4086ZM106.655 105H104.513L107.777 95.5455H110.353L113.612 105H111.47L109.102 97.706H109.028L106.655 105ZM106.522 101.284H111.581V102.844H106.522V101.284ZM114.75 105V95.5455H118.536C119.232 95.5455 119.812 95.6486 120.276 95.8548C120.741 96.061 121.09 96.3472 121.324 96.7134C121.558 97.0766 121.675 97.4951 121.675 97.9691C121.675 98.3384 121.601 98.6631 121.454 98.9432C121.306 99.2202 121.103 99.4479 120.844 99.6264C120.589 99.8018 120.296 99.9265 119.967 100V100.093C120.327 100.108 120.664 100.21 120.978 100.397C121.295 100.585 121.552 100.848 121.749 101.187C121.946 101.522 122.044 101.922 122.044 102.387C122.044 102.889 121.92 103.337 121.671 103.73C121.424 104.121 121.06 104.431 120.576 104.658C120.093 104.886 119.498 105 118.79 105H114.75ZM116.749 103.366H118.379C118.936 103.366 119.342 103.26 119.598 103.047C119.853 102.832 119.981 102.546 119.981 102.189C119.981 101.927 119.918 101.696 119.792 101.496C119.665 101.296 119.485 101.139 119.252 101.025C119.021 100.911 118.745 100.854 118.425 100.854H116.749V103.366ZM116.749 99.5018H118.231C118.505 99.5018 118.748 99.4541 118.961 99.3587C119.176 99.2602 119.345 99.1217 119.468 98.9432C119.595 98.7647 119.658 98.5508 119.658 98.3015C119.658 97.9599 119.536 97.6844 119.293 97.4751C119.053 97.2659 118.711 97.1612 118.268 97.1612H116.749V99.5018ZM128.474 98.2646C128.437 97.8922 128.279 97.6029 127.999 97.3967C127.719 97.1905 127.338 97.0874 126.858 97.0874C126.532 97.0874 126.257 97.1335 126.032 97.2259C125.807 97.3151 125.635 97.4397 125.515 97.5998C125.398 97.7598 125.339 97.9414 125.339 98.1445C125.333 98.3138 125.369 98.4615 125.446 98.5877C125.526 98.7139 125.635 98.8232 125.773 98.9155C125.912 99.0047 126.072 99.0832 126.254 99.1509C126.435 99.2156 126.629 99.271 126.835 99.3171L127.685 99.5202C128.097 99.6126 128.476 99.7357 128.82 99.8896C129.165 100.043 129.464 100.233 129.716 100.457C129.968 100.682 130.164 100.947 130.302 101.251C130.444 101.556 130.516 101.905 130.519 102.299C130.516 102.878 130.368 103.38 130.076 103.804C129.787 104.226 129.368 104.554 128.82 104.788C128.276 105.018 127.618 105.134 126.849 105.134C126.086 105.134 125.421 105.017 124.855 104.783C124.292 104.549 123.851 104.203 123.534 103.744C123.221 103.283 123.056 102.712 123.04 102.032H124.975C124.996 102.349 125.087 102.613 125.247 102.826C125.41 103.035 125.627 103.193 125.898 103.301C126.172 103.406 126.481 103.458 126.826 103.458C127.165 103.458 127.458 103.409 127.708 103.31C127.96 103.212 128.156 103.075 128.294 102.9C128.433 102.724 128.502 102.522 128.502 102.295C128.502 102.082 128.439 101.904 128.312 101.759C128.189 101.615 128.008 101.491 127.768 101.39C127.531 101.288 127.24 101.196 126.895 101.113L125.866 100.854C125.069 100.661 124.439 100.357 123.978 99.945C123.516 99.5326 123.287 98.977 123.29 98.2784C123.287 97.706 123.439 97.2058 123.747 96.7781C124.058 96.3503 124.484 96.0163 125.026 95.7763C125.567 95.5362 126.183 95.4162 126.872 95.4162C127.574 95.4162 128.186 95.5362 128.71 95.7763C129.236 96.0163 129.645 96.3503 129.938 96.7781C130.23 97.2058 130.381 97.7013 130.39 98.2646H128.474Z" fill="white" fill-opacity="0.5"/>
<path d="M71.5298 95.5455L72.4828 95.2423L72.2611 94.5455H71.5298V95.5455ZM73.815 102.729L72.862 103.032L73.0837 103.729H73.815V102.729ZM73.9027 102.729V103.729H74.6335L74.8555 103.032L73.9027 102.729ZM76.1925 95.5455V94.5455H75.4617L75.2397 95.2417L76.1925 95.5455ZM78.4084 95.5455L79.3538 95.8714L79.8109 94.5455H78.4084V95.5455ZM75.1491 105V106H75.8622L76.0946 105.326L75.1491 105ZM72.5732 105L71.6279 105.326L71.8605 106H72.5732V105ZM69.3093 95.5455V94.5455H67.9062L68.364 95.8718L69.3093 95.5455ZM70.5769 95.8486L72.862 103.032L74.7679 102.426L72.4828 95.2423L70.5769 95.8486ZM73.815 103.729H73.9027V101.729H73.815V103.729ZM74.8555 103.032L77.1452 95.8492L75.2397 95.2417L72.9499 102.425L74.8555 103.032ZM76.1925 96.5455H78.4084V94.5455H76.1925V96.5455ZM77.463 95.2195L74.2037 104.674L76.0946 105.326L79.3538 95.8714L77.463 95.2195ZM75.1491 104H72.5732V106H75.1491V104ZM73.5184 104.674L70.2546 95.2191L68.364 95.8718L71.6279 105.326L73.5184 104.674ZM69.3093 96.5455H71.5298V94.5455H69.3093V96.5455ZM81.1436 104.774L80.7346 105.686L80.7409 105.689L81.1436 104.774ZM79.8741 103.786L79.0664 104.375L79.0713 104.382L79.8741 103.786ZM79.3986 102.327V101.327H78.3817L78.3988 102.344L79.3986 102.327ZM81.4114 102.327L82.41 102.274L82.3595 101.327H81.4114V102.327ZM81.6376 102.936L80.8527 103.556L80.8587 103.564L80.8649 103.571L81.6376 102.936ZM82.2008 103.338L81.8231 104.264L81.8231 104.264L82.2008 103.338ZM83.7981 103.32L83.3798 102.411L83.3798 102.411L83.7981 103.32ZM84.3475 102.872L85.1692 103.442L85.1692 103.442L84.3475 102.872ZM84.3336 101.542L83.5156 102.117L83.5207 102.125L83.526 102.132L84.3336 101.542ZM83.7335 101.081L83.3396 102L83.3435 102.001L83.7335 101.081ZM81.9284 100.914H80.9284V101.914H81.9284V100.914ZM81.9284 99.4464V98.4464H80.9284V99.4464H81.9284ZM83.6088 99.2894L83.2005 98.3766L83.196 98.3786L83.6088 99.2894ZM84.1536 98.8555L84.9728 99.4289L84.9772 99.4226L84.1536 98.8555ZM84.1767 97.5767L83.323 98.0976L83.3282 98.1061L83.3336 98.1145L84.1767 97.5767ZM83.7058 97.152L83.2531 98.0437L83.2586 98.0464L83.7058 97.152ZM82.2608 97.1474L82.6517 98.0679L82.6623 98.0632L82.2608 97.1474ZM81.7207 97.5582L82.5174 98.1626L82.5174 98.1626L81.7207 97.5582ZM81.5037 98.1861V99.1861H82.466L82.503 98.2245L81.5037 98.1861ZM79.5879 98.1861L78.588 98.1691L78.5708 99.1861H79.5879V98.1861ZM80.0542 96.7457L80.8634 97.3332L80.8634 97.3332L80.0542 96.7457ZM81.2729 95.7717L81.6892 96.6809L81.6916 96.6798L81.2729 95.7717ZM84.726 95.7717L85.1619 94.8716L85.1619 94.8716L84.726 95.7717ZM85.8663 96.7319L85.0362 97.2895L85.0411 97.2968L85.8663 96.7319ZM86.2725 98.0799L85.2725 98.0737L85.2726 98.0857L86.2725 98.0799ZM85.7786 99.4048L85.0496 98.7202L85.0465 98.7236L85.7786 99.4048ZM84.4906 100.079L84.3132 99.0947L83.4906 99.243V100.079H84.4906ZM84.4906 100.153H83.4906V101.033L84.3633 101.145L84.4906 100.153ZM86.0787 100.877L85.3434 101.555L85.3489 101.561L86.0787 100.877ZM86.6234 102.346L85.6234 102.34L85.6234 102.351L86.6234 102.346ZM86.1571 103.781L85.3571 103.181L85.3543 103.185L86.1571 103.781ZM84.8691 104.769L84.4678 103.853L84.4678 103.853L84.8691 104.769ZM82.9856 104.129C82.4114 104.129 81.9381 104.031 81.5464 103.858L80.7409 105.689C81.4263 105.991 82.1811 106.129 82.9856 106.129V104.129ZM81.5527 103.861C81.1534 103.682 80.8735 103.454 80.6769 103.19L79.0713 104.382C79.4965 104.955 80.0629 105.385 80.7346 105.686L81.5527 103.861ZM80.6818 103.196C80.5026 102.951 80.4045 102.667 80.3985 102.31L78.3988 102.344C78.4112 103.089 78.6301 103.778 79.0664 104.375L80.6818 103.196ZM79.3986 103.327H81.4114V101.327H79.3986V103.327ZM80.4128 102.38C80.4357 102.81 80.5816 103.213 80.8527 103.556L82.4225 102.317C82.4188 102.312 82.417 102.309 82.4162 102.308C82.4154 102.306 82.415 102.305 82.4147 102.305C82.4144 102.304 82.4111 102.295 82.41 102.274L80.4128 102.38ZM80.8649 103.571C81.1252 103.888 81.4561 104.114 81.8231 104.264L82.5785 102.412C82.4778 102.371 82.4331 102.329 82.4103 102.302L80.8649 103.571ZM81.8231 104.264C82.1943 104.415 82.5885 104.481 82.9902 104.481V102.481C82.8072 102.481 82.6751 102.452 82.5785 102.412L81.8231 104.264ZM82.9902 104.481C83.4132 104.481 83.8295 104.406 84.2164 104.228L83.3798 102.411C83.2989 102.449 83.1767 102.481 82.9902 102.481V104.481ZM84.2164 104.228C84.5945 104.054 84.9242 103.795 85.1692 103.442L83.5258 102.302C83.5061 102.33 83.4696 102.37 83.3798 102.411L84.2164 104.228ZM85.1692 103.442C85.4263 103.071 85.546 102.649 85.546 102.212H83.546C83.546 102.273 83.5333 102.291 83.5258 102.302L85.1692 103.442ZM85.546 102.212C85.546 101.759 85.4145 101.327 85.1413 100.953L83.526 102.132C83.5359 102.146 83.546 102.16 83.546 102.212H85.546ZM85.1517 100.967C84.8876 100.591 84.5259 100.33 84.1235 100.16L83.3435 102.001C83.4643 102.053 83.5027 102.099 83.5156 102.117L85.1517 100.967ZM84.1274 100.161C83.7157 99.985 83.2675 99.9144 82.8102 99.9144V101.914C83.0669 101.914 83.2342 101.955 83.3396 102L84.1274 100.161ZM82.8102 99.9144H81.9284V101.914H82.8102V99.9144ZM82.9284 100.914V99.4464H80.9284V100.914H82.9284ZM81.9284 100.446H82.8102V98.4464H81.9284V100.446ZM82.8102 100.446C83.2275 100.446 83.6389 100.374 84.0217 100.2L83.196 98.3786C83.1171 98.4144 82.9961 98.4464 82.8102 98.4464V100.446ZM84.0172 100.202C84.3932 100.034 84.7262 99.7812 84.9728 99.4289L83.3344 98.282C83.3224 98.2991 83.2923 98.3355 83.2005 98.3766L84.0172 100.202ZM84.9772 99.4226C85.2321 99.0524 85.3475 98.6319 85.3475 98.1999H83.3475C83.3475 98.2666 83.3336 98.2831 83.3299 98.2884L84.9772 99.4226ZM85.3475 98.1999C85.3475 97.7958 85.248 97.3967 85.0197 97.0389L83.3336 98.1145C83.3357 98.1177 83.3379 98.1219 83.3403 98.1307C83.343 98.1403 83.3475 98.1619 83.3475 98.1999H85.3475ZM85.0303 97.0558C84.8151 96.7031 84.5121 96.4371 84.153 96.2576L83.2586 98.0464C83.3057 98.07 83.3167 98.0871 83.323 98.0976L85.0303 97.0558ZM84.1585 96.2603C83.7935 96.075 83.399 95.9996 83.0041 95.9996V97.9996C83.1447 97.9996 83.218 98.0258 83.2531 98.0437L84.1585 96.2603ZM83.0041 95.9996C82.6095 95.9996 82.2232 96.072 81.8594 96.2315L82.6623 98.0632C82.7478 98.0258 82.857 97.9996 83.0041 97.9996V95.9996ZM81.87 96.2269C81.4995 96.3842 81.1741 96.6242 80.924 96.9539L82.5174 98.1626C82.5381 98.1353 82.5728 98.1013 82.6517 98.0678L81.87 96.2269ZM80.924 96.9539C80.6555 97.3078 80.521 97.7182 80.5045 98.1476L82.503 98.2245C82.5041 98.1944 82.5086 98.1799 82.51 98.1757C82.5113 98.1721 82.5128 98.1687 82.5174 98.1626L80.924 96.9539ZM81.5037 97.1861H79.5879V99.1861H81.5037V97.1861ZM80.5877 98.203C80.5937 97.8502 80.69 97.5721 80.8634 97.3332L79.2449 96.1583C78.8151 96.7503 78.6005 97.4324 78.588 98.1691L80.5877 98.203ZM80.8634 97.3332C81.0545 97.0699 81.3196 96.8501 81.6892 96.6809L80.8566 94.8624C80.2044 95.161 79.657 95.5906 79.2449 96.1583L80.8634 97.3332ZM81.6916 96.6798C82.0569 96.5114 82.4911 96.4162 83.0133 96.4162V94.4162C82.2429 94.4162 81.5169 94.558 80.8542 94.8635L81.6916 96.6798ZM83.0133 96.4162C83.5446 96.4162 83.9612 96.5124 84.2902 96.6717L85.1619 94.8716C84.5122 94.557 83.7869 94.4162 83.0133 94.4162V96.4162ZM84.2902 96.6717C84.6396 96.8409 84.8755 97.0504 85.0362 97.2895L86.6964 96.1743C86.3154 95.6071 85.7912 95.1764 85.1619 94.8716L84.2902 96.6717ZM85.0411 97.2968C85.1966 97.5238 85.2744 97.7727 85.2726 98.0737L87.2725 98.0861C87.2768 97.3899 87.0839 96.7402 86.6915 96.167L85.0411 97.2968ZM85.2726 98.0857C85.2743 98.384 85.1899 98.5709 85.0496 98.7203L86.5075 100.089C87.032 99.5309 87.277 98.8345 87.2725 98.0741L85.2726 98.0857ZM85.0465 98.7236C84.881 98.9015 84.655 99.0331 84.3132 99.0947L84.668 101.063C85.3849 100.934 86.0176 100.616 86.5107 100.086L85.0465 98.7236ZM83.4906 100.079V100.153H85.4906V100.079H83.4906ZM84.3633 101.145C84.8986 101.213 85.1833 101.382 85.3434 101.555L86.8139 100.2C86.2477 99.5855 85.4737 99.2706 84.6179 99.1608L84.3633 101.145ZM85.3489 101.561C85.5226 101.747 85.6253 101.981 85.6234 102.34L87.6234 102.351C87.6277 101.534 87.3672 100.79 86.8084 100.194L85.3489 101.561ZM85.6234 102.351C85.6253 102.678 85.536 102.943 85.3571 103.181L86.9571 104.381C87.4061 103.783 87.6277 103.09 87.6234 102.34L85.6234 102.351ZM85.3543 103.185C85.1617 103.444 84.88 103.673 84.4678 103.853L85.2705 105.685C85.9539 105.386 86.5309 104.955 86.96 104.377L85.3543 103.185ZM84.4678 103.853C84.0675 104.029 83.5803 104.129 82.9856 104.129V106.129C83.8066 106.129 84.5751 105.99 85.2705 105.685L84.4678 103.853ZM89.99 95.5455L90.8506 95.0362L90.5602 94.5455H89.99V95.5455ZM91.8966 98.7678L91.0359 99.277L91.3263 99.7678H91.8966V98.7678ZM91.9704 98.7678V99.7678H92.5393L92.83 99.2788L91.9704 98.7678ZM93.8863 95.5455V94.5455H93.3174L93.0267 95.0344L93.8863 95.5455ZM96.1437 95.5455L96.9973 96.0664L97.9256 94.5455H96.1437V95.5455ZM93.2584 100.273L92.4049 99.7517L92.0833 100.279L92.4101 100.802L93.2584 100.273ZM96.2084 105V106H98.0111L97.0567 104.471L96.2084 105ZM93.9094 105L93.0522 105.515L93.3436 106H93.9094V105ZM91.9704 101.773L92.8276 101.258L92.5362 100.773H91.9704V101.773ZM91.8966 101.773V100.773H91.3308L91.0394 101.258L91.8966 101.773ZM89.9577 105V106H90.5234L90.8148 105.515L89.9577 105ZM87.6679 105L86.8203 104.469L85.8621 106H87.6679V105ZM90.627 100.273L91.4747 100.803L91.8037 100.278L91.4791 99.7493L90.627 100.273ZM87.7233 95.5455V94.5455H85.9354L86.8712 96.0689L87.7233 95.5455ZM89.1293 96.0547L91.0359 99.277L92.7572 98.2585L90.8506 95.0362L89.1293 96.0547ZM91.8966 99.7678H91.9704V97.7678H91.8966V99.7678ZM92.83 99.2788L94.7458 96.0565L93.0267 95.0344L91.1109 98.2567L92.83 99.2788ZM93.8863 96.5455H96.1437V94.5455H93.8863V96.5455ZM95.2902 95.0245L92.4049 99.7517L94.112 100.794L96.9973 96.0664L95.2902 95.0245ZM92.4101 100.802L95.36 105.529L97.0567 104.471L94.1068 99.7433L92.4101 100.802ZM96.2084 104H93.9094V106H96.2084V104ZM94.7665 104.485L92.8276 101.258L91.1133 102.288L93.0522 105.515L94.7665 104.485ZM91.9704 100.773H91.8966V102.773H91.9704V100.773ZM91.0394 101.258L89.1005 104.485L90.8148 105.515L92.7537 102.288L91.0394 101.258ZM89.9577 104H87.6679V106H89.9577V104ZM88.5155 105.531L91.4747 100.803L89.7794 99.7421L86.8203 104.469L88.5155 105.531ZM91.4791 99.7493L88.5754 95.0221L86.8712 96.0689L89.775 100.796L91.4791 99.7493ZM87.7233 96.5455H89.99V94.5455H87.7233V96.5455ZM97.4086 105H96.4086V106H97.4086V105ZM97.4086 95.5455V94.5455H96.4086V95.5455H97.4086ZM99.4076 95.5455H100.408V94.5455H99.4076V95.5455ZM99.4076 103.352H98.4076V104.352H99.4076V103.352ZM103.461 103.352H104.461V102.352H103.461V103.352ZM103.461 105V106H104.461V105H103.461ZM98.4086 105V95.5455H96.4086V105H98.4086ZM97.4086 96.5455H99.4076V94.5455H97.4086V96.5455ZM98.4076 95.5455V103.352H100.408V95.5455H98.4076ZM99.4076 104.352H103.461V102.352H99.4076V104.352ZM102.461 103.352V105H104.461V103.352H102.461ZM103.461 104H97.4086V106H103.461V104ZM106.655 105V106H107.382L107.606 105.309L106.655 105ZM104.513 105L103.568 104.674L103.11 106H104.513V105ZM107.777 95.5455V94.5455H107.065L106.832 95.2191L107.777 95.5455ZM110.353 95.5455L111.299 95.2195L111.066 94.5455H110.353V95.5455ZM113.612 105V106H115.015L114.558 104.674L113.612 105ZM111.47 105L110.519 105.309L110.744 106H111.47V105ZM109.102 97.706L110.053 97.3972L109.829 96.706H109.102V97.706ZM109.028 97.706V96.706H108.302L108.077 97.3966L109.028 97.706ZM106.522 101.284V100.284H105.522V101.284H106.522ZM111.581 101.284H112.581V100.284H111.581V101.284ZM111.581 102.844V103.844H112.581V102.844H111.581ZM106.522 102.844H105.522V103.844H106.522V102.844ZM106.655 104H104.513V106H106.655V104ZM105.459 105.326L108.723 95.8718L106.832 95.2191L103.568 104.674L105.459 105.326ZM107.777 96.5455H110.353V94.5455H107.777V96.5455ZM109.408 95.8714L112.667 105.326L114.558 104.674L111.299 95.2195L109.408 95.8714ZM113.612 104H111.47V106H113.612V104ZM112.422 104.691L110.053 97.3972L108.151 98.0148L110.519 105.309L112.422 104.691ZM109.102 96.706H109.028V98.706H109.102V96.706ZM108.077 97.3966L105.705 104.691L107.606 105.309L109.979 98.0153L108.077 97.3966ZM106.522 102.284H111.581V100.284H106.522V102.284ZM110.581 101.284V102.844H112.581V101.284H110.581ZM111.581 101.844H106.522V103.844H111.581V101.844ZM107.522 102.844V101.284H105.522V102.844H107.522ZM114.75 105H113.75V106H114.75V105ZM114.75 95.5455V94.5455H113.75V95.5455H114.75ZM120.276 95.8548L119.871 96.7688L119.871 96.7688L120.276 95.8548ZM121.324 96.7134L120.482 97.2517L120.484 97.2549L121.324 96.7134ZM121.454 98.9432L122.336 99.4138L122.338 99.4097L121.454 98.9432ZM120.844 99.6264L121.41 100.451L121.412 100.449L120.844 99.6264ZM119.967 100L119.748 99.0246L118.967 99.1998V100H119.967ZM119.967 100.093H118.967V101.051L119.924 101.092L119.967 100.093ZM120.978 100.397L120.465 101.256L120.468 101.258L120.978 100.397ZM121.749 101.187L120.885 101.69L120.887 101.693L121.749 101.187ZM121.671 103.73L120.826 103.196L120.824 103.197L121.671 103.73ZM120.576 104.658L120.15 103.754L120.15 103.754L120.576 104.658ZM116.749 103.366H115.749V104.366H116.749V103.366ZM119.598 103.047L120.237 103.816L120.242 103.812L119.598 103.047ZM119.792 101.496L118.946 102.03L118.946 102.03L119.792 101.496ZM119.252 101.025L118.809 101.922L118.814 101.924L119.252 101.025ZM116.749 100.854V99.8544H115.749V100.854H116.749ZM116.749 99.5018H115.749V100.502H116.749V99.5018ZM118.961 99.3587L119.37 100.271L119.376 100.268L118.961 99.3587ZM119.468 98.9432L118.652 98.3659L118.645 98.3754L119.468 98.9432ZM119.293 97.4751L118.636 98.2289L118.641 98.233L119.293 97.4751ZM116.749 97.1612V96.1612H115.749V97.1612H116.749ZM115.75 105V95.5455H113.75V105H115.75ZM114.75 96.5455H118.536V94.5455H114.75V96.5455ZM118.536 96.5455C119.14 96.5455 119.572 96.6361 119.871 96.7688L120.682 94.9407C120.052 94.661 119.323 94.5455 118.536 94.5455V96.5455ZM119.871 96.7688C120.187 96.9092 120.37 97.0775 120.482 97.2517L122.167 96.1752C121.811 95.6169 121.295 95.2127 120.682 94.9407L119.871 96.7688ZM120.484 97.2549C120.603 97.441 120.675 97.6678 120.675 97.9691H122.675C122.675 97.3225 122.513 96.7121 122.165 96.1719L120.484 97.2549ZM120.675 97.9691C120.675 98.2029 120.629 98.3626 120.569 98.4766L122.338 99.4097C122.573 98.9636 122.675 98.4739 122.675 97.9691H120.675ZM120.571 98.4726C120.499 98.6086 120.403 98.7156 120.276 98.8035L121.412 100.449C121.802 100.18 122.113 99.8317 122.336 99.4138L120.571 98.4726ZM120.278 98.8021C120.137 98.8992 119.964 98.9761 119.748 99.0246L120.186 100.976C120.628 100.877 121.041 100.705 121.41 100.451L120.278 98.8021ZM118.967 100V100.093H120.967V100H118.967ZM119.924 101.092C120.116 101.1 120.291 101.152 120.465 101.256L121.491 99.5391C121.037 99.2674 120.539 99.1162 120.01 99.0936L119.924 101.092ZM120.468 101.258C120.629 101.353 120.768 101.489 120.885 101.69L122.613 100.684C122.336 100.207 121.961 99.8171 121.488 99.5369L120.468 101.258ZM120.887 101.693C120.977 101.848 121.044 102.066 121.044 102.387H123.044C123.044 101.779 122.915 101.197 122.611 100.68L120.887 101.693ZM121.044 102.387C121.044 102.714 120.966 102.974 120.826 103.196L122.516 104.265C122.874 103.699 123.044 103.063 123.044 102.387H121.044ZM120.824 103.197C120.695 103.403 120.488 103.594 120.15 103.754L121.003 105.563C121.631 105.267 122.154 104.84 122.517 104.263L120.824 103.197ZM120.15 103.754C119.836 103.902 119.396 104 118.79 104V106C119.599 106 120.35 105.87 121.003 105.563L120.15 103.754ZM118.79 104H114.75V106H118.79V104ZM116.749 104.366H118.379V102.366H116.749V104.366ZM118.379 104.366C119.024 104.366 119.715 104.25 120.237 103.816L118.958 102.278C118.969 102.269 118.946 102.293 118.849 102.319C118.75 102.344 118.598 102.366 118.379 102.366V104.366ZM120.242 103.812C120.74 103.392 120.981 102.817 120.981 102.189H118.981C118.981 102.218 118.978 102.237 118.976 102.248C118.974 102.259 118.972 102.263 118.972 102.263C118.972 102.264 118.972 102.264 118.971 102.265C118.969 102.267 118.965 102.273 118.953 102.283L120.242 103.812ZM120.981 102.189C120.981 101.759 120.875 101.339 120.637 100.963L118.946 102.03C118.961 102.053 118.981 102.095 118.981 102.189H120.981ZM120.637 100.963C120.402 100.59 120.073 100.313 119.689 100.126L118.814 101.924C118.898 101.965 118.929 102.003 118.946 102.03L120.637 100.963ZM119.694 100.128C119.296 99.9321 118.862 99.8544 118.425 99.8544V101.854C118.628 101.854 118.745 101.891 118.809 101.922L119.694 100.128ZM118.425 99.8544H116.749V101.854H118.425V99.8544ZM115.749 100.854V103.366H117.749V100.854H115.749ZM116.749 100.502H118.231V98.5018H116.749V100.502ZM118.231 100.502C118.622 100.502 119.009 100.433 119.37 100.271L118.551 98.4465C118.488 98.4747 118.389 98.5018 118.231 98.5018V100.502ZM119.376 100.268C119.74 100.102 120.057 99.8516 120.292 99.5109L118.645 98.3754C118.634 98.3918 118.612 98.4186 118.545 98.4492L119.376 100.268ZM120.285 99.5204C120.547 99.1501 120.658 98.7274 120.658 98.3015H118.658C118.658 98.3415 118.653 98.361 118.651 98.366C118.65 98.3698 118.65 98.3681 118.652 98.3659L120.285 99.5204ZM120.658 98.3015C120.658 97.6902 120.425 97.1301 119.945 96.7172L118.641 98.233C118.65 98.2412 118.653 98.2457 118.654 98.2457C118.654 98.2459 118.653 98.2455 118.653 98.2447C118.652 98.2438 118.652 98.243 118.652 98.2425C118.651 98.2409 118.652 98.243 118.654 98.251C118.655 98.2592 118.658 98.2755 118.658 98.3015H120.658ZM119.95 96.7214C119.468 96.3007 118.859 96.1612 118.268 96.1612V98.1612C118.413 98.1612 118.508 98.1786 118.564 98.1959C118.617 98.2121 118.634 98.2272 118.636 98.2289L119.95 96.7214ZM118.268 96.1612H116.749V98.1612H118.268V96.1612ZM115.749 97.1612V99.5018H117.749V97.1612H115.749ZM128.474 98.2646L127.479 98.3632L127.568 99.2646H128.474V98.2646ZM126.032 97.2259L126.401 98.1553L126.412 98.1508L126.032 97.2259ZM125.515 97.5998L124.715 96.9997L124.708 97.0098L125.515 97.5998ZM125.339 98.1445L126.339 98.1809L126.339 98.1627V98.1445H125.339ZM125.446 98.5877L124.592 99.1083L124.596 99.1158L124.601 99.1233L125.446 98.5877ZM125.773 98.9155L125.219 99.7475L125.225 99.7518L125.232 99.7561L125.773 98.9155ZM126.254 99.1509L125.904 100.088L125.911 100.091L125.918 100.093L126.254 99.1509ZM126.835 99.3171L127.068 98.3445L127.061 98.3429L127.054 98.3413L126.835 99.3171ZM127.685 99.5202L127.452 100.493L127.459 100.495L127.466 100.496L127.685 99.5202ZM128.82 99.8896L128.413 100.803L128.413 100.803L128.82 99.8896ZM129.716 100.457L130.381 99.7105L130.381 99.7105L129.716 100.457ZM130.302 101.251L129.392 101.665L129.395 101.673L130.302 101.251ZM130.519 102.299L131.519 102.305L131.519 102.292L130.519 102.299ZM130.076 103.804L129.252 103.237L129.251 103.239L130.076 103.804ZM128.82 104.788L129.21 105.708L129.213 105.707L128.82 104.788ZM124.855 104.783L124.471 105.707L124.473 105.707L124.855 104.783ZM123.534 103.744L122.707 104.307L122.712 104.313L123.534 103.744ZM123.04 102.032V101.032H122.018L122.041 102.054L123.04 102.032ZM124.975 102.032L125.972 101.964L125.909 101.032H124.975V102.032ZM125.247 102.826L124.449 103.427L124.453 103.434L124.458 103.44L125.247 102.826ZM125.898 103.301L125.528 104.23L125.541 104.235L125.898 103.301ZM127.708 103.31L127.344 102.379L127.34 102.38L127.708 103.31ZM128.294 102.9L129.079 103.519L129.079 103.519L128.294 102.9ZM128.312 101.759L127.551 102.407L127.559 102.417L128.312 101.759ZM127.768 101.39L127.374 102.309L127.378 102.311L127.768 101.39ZM126.895 101.113L126.652 102.083L126.661 102.085L126.895 101.113ZM125.866 100.854L126.109 99.8845L126.102 99.8827L125.866 100.854ZM123.978 99.945L123.311 100.691L123.311 100.691L123.978 99.945ZM123.29 98.2784L124.29 98.2828L124.29 98.273L123.29 98.2784ZM123.747 96.7781L122.938 96.1902L122.935 96.1941L123.747 96.7781ZM128.71 95.7763L128.292 96.6852L128.295 96.6861L128.71 95.7763ZM129.938 96.7781L129.112 97.3423L129.112 97.3423L129.938 96.7781ZM130.39 98.2646V99.2646H131.406L131.39 98.2482L130.39 98.2646ZM129.469 98.1659C129.407 97.5357 129.118 96.9794 128.591 96.5914L127.406 98.2019C127.439 98.2264 127.468 98.2486 127.479 98.3632L129.469 98.1659ZM128.591 96.5914C128.085 96.2186 127.472 96.0874 126.858 96.0874V98.0874C127.205 98.0874 127.352 98.1624 127.406 98.2019L128.591 96.5914ZM126.858 96.0874C126.444 96.0874 126.031 96.1452 125.652 96.3009L126.412 98.1508C126.482 98.1219 126.62 98.0874 126.858 98.0874V96.0874ZM125.663 96.2965C125.303 96.4395 124.967 96.6643 124.715 96.9998L126.315 98.1998C126.311 98.2052 126.31 98.2037 126.32 98.1966C126.331 98.1888 126.355 98.1734 126.401 98.1552L125.663 96.2965ZM124.708 97.0098C124.462 97.3456 124.339 97.7349 124.339 98.1445H126.339C126.339 98.1403 126.34 98.148 126.335 98.1625C126.333 98.1692 126.33 98.1754 126.328 98.1807C126.325 98.1859 126.323 98.189 126.322 98.1898L124.708 97.0098ZM124.34 98.1082C124.328 98.4439 124.399 98.7913 124.592 99.1083L126.299 98.0671C126.317 98.0956 126.328 98.1245 126.334 98.1493C126.34 98.173 126.339 98.1852 126.339 98.1809L124.34 98.1082ZM124.601 99.1233C124.764 99.3802 124.977 99.5866 125.219 99.7475L126.328 98.0834C126.31 98.071 126.299 98.0618 126.295 98.0572C126.29 98.0528 126.29 98.0511 126.29 98.0522L124.601 99.1233ZM125.232 99.7561C125.44 99.8904 125.667 99.9993 125.904 100.088L126.603 98.2139C126.477 98.1671 126.384 98.1191 126.315 98.0749L125.232 99.7561ZM125.918 100.093C126.141 100.172 126.375 100.239 126.617 100.293L127.054 98.3413C126.883 98.3031 126.729 98.2586 126.589 98.2088L125.918 100.093ZM126.603 100.29L127.452 100.493L127.917 98.5477L127.068 98.3445L126.603 100.29ZM127.466 100.496C127.821 100.576 128.135 100.679 128.413 100.803L129.228 98.9764C128.816 98.7924 128.373 98.6496 127.903 98.5444L127.466 100.496ZM128.413 100.803C128.674 100.92 128.884 101.055 129.051 101.204L130.381 99.7105C130.043 99.41 129.656 99.1673 129.228 98.9764L128.413 100.803ZM129.051 101.204C129.2 101.337 129.312 101.489 129.392 101.665L131.213 100.838C131.016 100.405 130.736 100.027 130.381 99.7105L129.051 101.204ZM129.395 101.673C129.467 101.827 129.517 102.032 129.519 102.307L131.519 102.292C131.515 101.779 131.42 101.285 131.209 100.83L129.395 101.673ZM129.519 102.294C129.517 102.697 129.417 102.998 129.252 103.237L130.9 104.371C131.319 103.762 131.515 103.059 131.519 102.305L129.519 102.294ZM129.251 103.239C129.086 103.479 128.83 103.696 128.428 103.868L129.213 105.707C129.906 105.411 130.487 104.973 130.901 104.37L129.251 103.239ZM128.43 103.867C128.04 104.032 127.523 104.134 126.849 104.134V106.134C127.714 106.134 128.511 106.005 129.21 105.708L128.43 103.867ZM126.849 104.134C126.186 104.134 125.656 104.032 125.237 103.859L124.473 105.707C125.186 106.002 125.986 106.134 126.849 106.134V104.134ZM125.238 103.86C124.835 103.692 124.555 103.461 124.357 103.176L122.712 104.313C123.148 104.944 123.748 105.406 124.471 105.707L125.238 103.86ZM124.361 103.182C124.178 102.912 124.052 102.539 124.04 102.009L122.041 102.054C122.06 102.885 122.264 103.654 122.708 104.307L124.361 103.182ZM123.04 103.032H124.975V101.032H123.04V103.032ZM123.977 102.099C124.009 102.572 124.151 103.032 124.449 103.427L126.046 102.224C126.024 102.194 125.983 102.125 125.972 101.964L123.977 102.099ZM124.458 103.44C124.741 103.803 125.109 104.064 125.529 104.23L126.268 102.372C126.145 102.323 126.079 102.266 126.036 102.211L124.458 103.44ZM125.541 104.235C125.947 104.39 126.38 104.458 126.826 104.458V102.458C126.582 102.458 126.397 102.421 126.255 102.367L125.541 104.235ZM126.826 104.458C127.259 104.458 127.683 104.396 128.075 104.24L127.34 102.38C127.234 102.422 127.071 102.458 126.826 102.458V104.458ZM128.071 104.242C128.454 104.093 128.809 103.861 129.079 103.519L127.509 102.28C127.502 102.289 127.466 102.331 127.344 102.379L128.071 104.242ZM129.079 103.519C129.36 103.164 129.502 102.743 129.502 102.295H127.502C127.502 102.301 127.501 102.303 127.502 102.301C127.502 102.3 127.503 102.296 127.504 102.292C127.506 102.287 127.508 102.283 127.509 102.28C127.511 102.278 127.511 102.277 127.509 102.28L129.079 103.519ZM129.502 102.295C129.502 101.868 129.368 101.448 129.066 101.102L127.559 102.417C127.54 102.395 127.523 102.366 127.512 102.335C127.501 102.305 127.502 102.288 127.502 102.295H129.502ZM129.074 101.111C128.82 100.812 128.49 100.61 128.157 100.469L127.378 102.311C127.525 102.373 127.559 102.417 127.551 102.407L129.074 101.111ZM128.162 100.471C127.858 100.341 127.51 100.233 127.13 100.141L126.661 102.085C126.97 102.16 127.204 102.236 127.374 102.309L128.162 100.471ZM127.139 100.143L126.109 99.8845L125.622 101.824L126.652 102.083L127.139 100.143ZM126.102 99.8827C125.415 99.7155 124.95 99.4723 124.644 99.1992L123.311 100.691C123.929 101.242 124.723 101.605 125.629 101.826L126.102 99.8827ZM124.644 99.1992C124.424 99.0032 124.288 98.7361 124.29 98.2828L122.29 98.274C122.286 99.218 122.607 100.062 123.311 100.691L124.644 99.1992ZM124.29 98.273C124.288 97.8928 124.385 97.6032 124.559 97.3621L122.935 96.1941C122.493 96.8085 122.286 97.5192 122.29 98.2838L124.29 98.273ZM124.556 97.3659C124.751 97.0971 125.03 96.868 125.431 96.6905L124.62 94.862C123.938 95.1647 123.364 95.6034 122.938 96.1902L124.556 97.3659ZM125.431 96.6905C125.826 96.5155 126.3 96.4162 126.872 96.4162V94.4162C126.066 94.4162 125.309 94.5569 124.62 94.862L125.431 96.6905ZM126.872 96.4162C127.461 96.4162 127.926 96.5168 128.292 96.6852L129.127 94.8674C128.447 94.5556 127.687 94.4162 126.872 94.4162V96.4162ZM128.295 96.6861C128.675 96.8596 128.934 97.082 129.112 97.3423L130.763 96.2138C130.356 95.6185 129.797 95.1731 129.125 94.8665L128.295 96.6861ZM129.112 97.3423C129.284 97.5944 129.384 97.8957 129.39 98.281L131.39 98.2482C131.378 97.507 131.176 96.8173 130.763 96.2138L129.112 97.3423ZM130.39 97.2646H128.474V99.2646H130.39V97.2646Z" fill="black" fill-opacity="0.5" mask="url(#path-1-outside-1_980_34)"/>
</svg>
