<svg width="846" height="63" viewBox="0 0 846 63" fill="none" xmlns="http://www.w3.org/2000/svg">
<rect width="846" height="63" rx="7" fill="#FF0000" fill-opacity="0.06"/>
<rect x="0.5" y="0.5" width="845" height="62" rx="6.5" stroke="#FF0400" stroke-opacity="0.18"/>
<path d="M21.1122 37L18.2884 26.8182H19.9041L21.8878 34.7031H21.9822L24.0455 26.8182H25.6463L27.7095 34.7081H27.804L29.7827 26.8182H31.4034L28.5746 37H27.0284L24.8857 29.3736H24.8061L22.6634 37H21.1122ZM35.2241 37.1541C34.4717 37.1541 33.8237 36.9934 33.2802 36.6719C32.7399 36.3471 32.3223 35.8913 32.0273 35.3047C31.7357 34.7147 31.5898 34.0237 31.5898 33.2315C31.5898 32.4493 31.7357 31.7599 32.0273 31.1634C32.3223 30.5668 32.7333 30.1011 33.2603 29.7663C33.7906 29.4316 34.4104 29.2642 35.1197 29.2642C35.5505 29.2642 35.9682 29.3355 36.3725 29.478C36.7769 29.6205 37.1398 29.8442 37.4613 30.1491C37.7828 30.4541 38.0363 30.8501 38.2219 31.3374C38.4076 31.8213 38.5004 32.4096 38.5004 33.1023V33.6293H32.43V32.5156H37.0437C37.0437 32.1245 36.9641 31.7782 36.805 31.4766C36.646 31.1716 36.4222 30.9313 36.1339 30.7557C35.8488 30.58 35.5141 30.4922 35.1296 30.4922C34.712 30.4922 34.3474 30.5949 34.0359 30.8004C33.7276 31.0026 33.489 31.2678 33.32 31.5959C33.1542 31.9207 33.0714 32.2737 33.0714 32.6548V33.5249C33.0714 34.0353 33.1609 34.4695 33.3398 34.8274C33.5221 35.1854 33.7757 35.4588 34.1005 35.6477C34.4253 35.8333 34.8048 35.9261 35.239 35.9261C35.5207 35.9261 35.7776 35.8864 36.0096 35.8068C36.2416 35.724 36.4421 35.6013 36.6112 35.4389C36.7802 35.2765 36.9094 35.076 36.9989 34.8374L38.4059 35.0909C38.2932 35.5052 38.091 35.8681 37.7994 36.1797C37.511 36.4879 37.1481 36.7282 36.7106 36.9006C36.2764 37.0696 35.7809 37.1541 35.2241 37.1541ZM43.9741 37V26.8182H45.4606V30.6016H45.5501C45.6362 30.4425 45.7605 30.2585 45.9229 30.0497C46.0853 29.8409 46.3107 29.6586 46.5991 29.5028C46.8874 29.3438 47.2686 29.2642 47.7425 29.2642C48.359 29.2642 48.9092 29.42 49.3931 29.7315C49.877 30.0431 50.2565 30.4922 50.5316 31.0788C50.81 31.6655 50.9492 32.3714 50.9492 33.1967C50.9492 34.022 50.8117 34.7296 50.5366 35.3196C50.2615 35.9062 49.8836 36.3587 49.4031 36.6768C48.9225 36.9917 48.3739 37.1491 47.7575 37.1491C47.2934 37.1491 46.9139 37.0713 46.619 36.9155C46.3273 36.7597 46.0986 36.5774 45.9329 36.3686C45.7672 36.1598 45.6396 35.9742 45.5501 35.8118H45.4258V37H43.9741ZM45.4308 33.1818C45.4308 33.7187 45.5086 34.1894 45.6644 34.5938C45.8202 34.9981 46.0456 35.3146 46.3406 35.5433C46.6355 35.7687 46.9968 35.8814 47.4244 35.8814C47.8685 35.8814 48.2397 35.7637 48.538 35.5284C48.8363 35.2898 49.0617 34.9666 49.2141 34.5589C49.3699 34.1513 49.4478 33.6922 49.4478 33.1818C49.4478 32.678 49.3716 32.2256 49.2191 31.8246C49.07 31.4235 48.8446 31.107 48.543 30.875C48.2447 30.643 47.8718 30.527 47.4244 30.527C46.9935 30.527 46.6289 30.638 46.3306 30.8601C46.0356 31.0821 45.8119 31.392 45.6594 31.7898C45.507 32.1875 45.4308 32.6515 45.4308 33.1818ZM57.4558 33.8331V29.3636H58.9473V37H57.4856V35.6776H57.4061C57.2304 36.0852 56.9487 36.425 56.5609 36.6967C56.1764 36.9652 55.6975 37.0994 55.1241 37.0994C54.6336 37.0994 54.1994 36.9917 53.8216 36.7763C53.447 36.5575 53.152 36.2344 52.9366 35.8068C52.7245 35.3793 52.6184 34.8506 52.6184 34.2209V29.3636H54.1049V34.0419C54.1049 34.5623 54.2491 34.9766 54.5375 35.2848C54.8258 35.593 55.2003 35.7472 55.661 35.7472C55.9395 35.7472 56.2162 35.6776 56.4913 35.5384C56.7697 35.3991 57.0001 35.1887 57.1824 34.907C57.368 34.6252 57.4591 34.2673 57.4558 33.8331ZM60.9446 37V29.3636H62.4311V37H60.9446ZM61.6953 28.1854C61.4368 28.1854 61.2147 28.0992 61.0291 27.9268C60.8468 27.7512 60.7557 27.5424 60.7557 27.3004C60.7557 27.0552 60.8468 26.8464 61.0291 26.674C61.2147 26.4983 61.4368 26.4105 61.6953 26.4105C61.9538 26.4105 62.1742 26.4983 62.3565 26.674C62.5421 26.8464 62.6349 27.0552 62.6349 27.3004C62.6349 27.5424 62.5421 27.7512 62.3565 27.9268C62.1742 28.0992 61.9538 28.1854 61.6953 28.1854ZM65.9174 26.8182V37H64.4309V26.8182H65.9174ZM70.7759 37.1491C70.1594 37.1491 69.6093 36.9917 69.1254 36.6768C68.6448 36.3587 68.2669 35.9062 67.9918 35.3196C67.7201 34.7296 67.5842 34.022 67.5842 33.1967C67.5842 32.3714 67.7217 31.6655 67.9968 31.0788C68.2752 30.4922 68.6564 30.0431 69.1403 29.7315C69.6242 29.42 70.1727 29.2642 70.7859 29.2642C71.2598 29.2642 71.641 29.3438 71.9293 29.5028C72.221 29.6586 72.4464 29.8409 72.6055 30.0497C72.7679 30.2585 72.8938 30.4425 72.9833 30.6016H73.0728V26.8182H74.5593V37H73.1076V35.8118H72.9833C72.8938 35.9742 72.7646 36.1598 72.5955 36.3686C72.4298 36.5774 72.2011 36.7597 71.9094 36.9155C71.6178 37.0713 71.2399 37.1491 70.7759 37.1491ZM71.104 35.8814C71.5316 35.8814 71.8929 35.7687 72.1879 35.5433C72.4862 35.3146 72.7115 34.9981 72.864 34.5938C73.0198 34.1894 73.0977 33.7187 73.0977 33.1818C73.0977 32.6515 73.0214 32.1875 72.869 31.7898C72.7165 31.392 72.4928 31.0821 72.1978 30.8601C71.9028 30.638 71.5382 30.527 71.104 30.527C70.6566 30.527 70.2837 30.643 69.9854 30.875C69.6871 31.107 69.4618 31.4235 69.3093 31.8246C69.1602 32.2256 69.0856 32.678 69.0856 33.1818C69.0856 33.6922 69.1618 34.1513 69.3143 34.5589C69.4667 34.9666 69.6921 35.2898 69.9904 35.5284C70.292 35.7637 70.6632 35.8814 71.104 35.8814ZM80.386 37V29.3636H81.8228V30.5767H81.9023C82.0415 30.1657 82.2868 29.8426 82.6381 29.6072C82.9928 29.3686 83.3938 29.2493 83.8413 29.2493C83.9341 29.2493 84.0434 29.2526 84.1694 29.2592C84.2987 29.2659 84.3997 29.2741 84.4727 29.2841V30.706C84.413 30.6894 84.3069 30.6712 84.1545 30.6513C84.002 30.6281 83.8496 30.6165 83.6971 30.6165C83.3458 30.6165 83.0326 30.6911 82.7575 30.8402C82.4857 30.986 82.2702 31.1899 82.1112 31.4517C81.9521 31.7102 81.8725 32.0052 81.8725 32.3366V37H80.386ZM88.7768 37.1541C88.0244 37.1541 87.3765 36.9934 86.8329 36.6719C86.2927 36.3471 85.8751 35.8913 85.5801 35.3047C85.2884 34.7147 85.1426 34.0237 85.1426 33.2315C85.1426 32.4493 85.2884 31.7599 85.5801 31.1634C85.8751 30.5668 86.286 30.1011 86.813 29.7663C87.3433 29.4316 87.9631 29.2642 88.6724 29.2642C89.1033 29.2642 89.5209 29.3355 89.9252 29.478C90.3296 29.6205 90.6925 29.8442 91.014 30.1491C91.3355 30.4541 91.5891 30.8501 91.7747 31.3374C91.9603 31.8213 92.0531 32.4096 92.0531 33.1023V33.6293H85.9828V32.5156H90.5964C90.5964 32.1245 90.5169 31.7782 90.3578 31.4766C90.1987 31.1716 89.975 30.9313 89.6866 30.7557C89.4016 30.58 89.0668 30.4922 88.6824 30.4922C88.2647 30.4922 87.9002 30.5949 87.5886 30.8004C87.2804 31.0026 87.0417 31.2678 86.8727 31.5959C86.707 31.9207 86.6241 32.2737 86.6241 32.6548V33.5249C86.6241 34.0353 86.7136 34.4695 86.8926 34.8274C87.0749 35.1854 87.3284 35.4588 87.6532 35.6477C87.978 35.8333 88.3575 35.9261 88.7917 35.9261C89.0734 35.9261 89.3303 35.8864 89.5623 35.8068C89.7943 35.724 89.9949 35.6013 90.1639 35.4389C90.3329 35.2765 90.4622 35.076 90.5517 34.8374L91.9586 35.0909C91.8459 35.5052 91.6438 35.8681 91.3521 36.1797C91.0637 36.4879 90.7008 36.7282 90.2633 36.9006C89.8291 37.0696 89.3336 37.1541 88.7768 37.1541ZM95.9247 37.169C95.4408 37.169 95.0033 37.0795 94.6122 36.9006C94.2211 36.7183 93.9112 36.4548 93.6825 36.1101C93.4571 35.7654 93.3445 35.3428 93.3445 34.8423C93.3445 34.4115 93.4273 34.0568 93.593 33.7784C93.7588 33.5 93.9825 33.2796 94.2642 33.1172C94.5459 32.9548 94.8608 32.8321 95.2088 32.7493C95.5568 32.6664 95.9115 32.6035 96.2727 32.5604C96.7301 32.5073 97.1013 32.4643 97.3864 32.4311C97.6714 32.3946 97.8786 32.3366 98.0078 32.2571C98.1371 32.1776 98.2017 32.0483 98.2017 31.8693V31.8345C98.2017 31.4003 98.0791 31.0639 97.8338 30.8253C97.5919 30.5866 97.2306 30.4673 96.75 30.4673C96.2495 30.4673 95.8551 30.5784 95.5668 30.8004C95.2817 31.0192 95.0845 31.2628 94.9751 31.5312L93.5781 31.2131C93.7438 30.7491 93.9858 30.3745 94.304 30.0895C94.6255 29.8011 94.995 29.5923 95.4126 29.4631C95.8303 29.3305 96.2694 29.2642 96.7301 29.2642C97.035 29.2642 97.3582 29.3007 97.6996 29.3736C98.0443 29.4432 98.3658 29.5724 98.6641 29.7614C98.9657 29.9503 99.2126 30.2204 99.4048 30.5717C99.5971 30.9197 99.6932 31.3722 99.6932 31.929V37H98.2415V35.956H98.1818C98.0857 36.1482 97.9415 36.3371 97.7493 36.5227C97.5571 36.7083 97.3101 36.8625 97.0085 36.9851C96.7069 37.1077 96.3456 37.169 95.9247 37.169ZM96.2479 35.9759C96.6589 35.9759 97.0102 35.8946 97.3018 35.7322C97.5968 35.5698 97.8205 35.3577 97.973 35.0959C98.1288 34.8307 98.2067 34.5473 98.2067 34.2457V33.2614C98.1536 33.3144 98.0509 33.3641 97.8984 33.4105C97.7493 33.4536 97.5786 33.4917 97.3864 33.5249C97.1941 33.5547 97.0069 33.5829 96.8246 33.6094C96.6423 33.6326 96.4898 33.6525 96.3672 33.669C96.0788 33.7055 95.8153 33.7668 95.5767 33.853C95.3414 33.9392 95.1525 34.0634 95.0099 34.2259C94.8707 34.3849 94.8011 34.5971 94.8011 34.8622C94.8011 35.2301 94.937 35.5085 95.2088 35.6974C95.4806 35.883 95.8269 35.9759 96.2479 35.9759ZM103.16 26.8182V37H101.673V26.8182H103.16ZM106.646 26.8182V37H105.159V26.8182H106.646ZM109.585 39.8636C109.363 39.8636 109.161 39.8454 108.979 39.8089C108.797 39.7758 108.661 39.7393 108.571 39.6996L108.929 38.4815C109.201 38.5545 109.443 38.5859 109.655 38.576C109.867 38.5661 110.054 38.4865 110.217 38.3374C110.383 38.1882 110.528 37.9446 110.654 37.6065L110.838 37.0994L108.044 29.3636H109.635L111.569 35.2898H111.649L113.583 29.3636H115.178L112.031 38.0192C111.886 38.4169 111.7 38.7533 111.475 39.0284C111.249 39.3068 110.981 39.5156 110.669 39.6548C110.358 39.794 109.996 39.8636 109.585 39.8636ZM123.497 37.1541C122.758 37.1541 122.122 36.9867 121.588 36.652C121.058 36.3139 120.65 35.8482 120.365 35.255C120.08 34.6617 119.938 33.9822 119.938 33.2166C119.938 32.4411 120.083 31.7566 120.375 31.1634C120.667 30.5668 121.078 30.1011 121.608 29.7663C122.138 29.4316 122.763 29.2642 123.482 29.2642C124.062 29.2642 124.579 29.3719 125.033 29.5874C125.487 29.7995 125.854 30.0978 126.132 30.4822C126.414 30.8667 126.581 31.3158 126.634 31.8295H125.188C125.108 31.4716 124.926 31.1634 124.641 30.9048C124.359 30.6463 123.981 30.517 123.507 30.517C123.093 30.517 122.73 30.6264 122.418 30.8452C122.11 31.0606 121.87 31.3688 121.697 31.7699C121.525 32.1676 121.439 32.6383 121.439 33.1818C121.439 33.7386 121.523 34.2192 121.692 34.6236C121.862 35.0279 122.1 35.3411 122.408 35.5632C122.72 35.7853 123.086 35.8963 123.507 35.8963C123.789 35.8963 124.044 35.8449 124.273 35.7422C124.505 35.6361 124.699 35.4853 124.854 35.2898C125.013 35.0942 125.125 34.8589 125.188 34.5838H126.634C126.581 35.0777 126.42 35.5185 126.152 35.9062C125.884 36.294 125.524 36.599 125.073 36.821C124.626 37.0431 124.1 37.1541 123.497 37.1541ZM131.441 37.1541C130.725 37.1541 130.1 36.9901 129.566 36.6619C129.033 36.3338 128.618 35.8748 128.323 35.2848C128.028 34.6948 127.881 34.0054 127.881 33.2166C127.881 32.4245 128.028 31.7318 128.323 31.1385C128.618 30.5452 129.033 30.0845 129.566 29.7564C130.1 29.4283 130.725 29.2642 131.441 29.2642C132.156 29.2642 132.781 29.4283 133.315 29.7564C133.848 30.0845 134.263 30.5452 134.558 31.1385C134.853 31.7318 135 32.4245 135 33.2166C135 34.0054 134.853 34.6948 134.558 35.2848C134.263 35.8748 133.848 36.3338 133.315 36.6619C132.781 36.9901 132.156 37.1541 131.441 37.1541ZM131.445 35.9062C131.91 35.9062 132.294 35.7836 132.599 35.5384C132.904 35.2931 133.129 34.9666 133.275 34.5589C133.424 34.1513 133.499 33.7022 133.499 33.2116C133.499 32.7244 133.424 32.277 133.275 31.8693C133.129 31.4583 132.904 31.1286 132.599 30.88C132.294 30.6314 131.91 30.5071 131.445 30.5071C130.978 30.5071 130.59 30.6314 130.282 30.88C129.977 31.1286 129.75 31.4583 129.601 31.8693C129.455 32.277 129.382 32.7244 129.382 33.2116C129.382 33.7022 129.455 34.1513 129.601 34.5589C129.75 34.9666 129.977 35.2931 130.282 35.5384C130.59 35.7836 130.978 35.9062 131.445 35.9062ZM139.876 37.1541C139.16 37.1541 138.535 36.9901 138.002 36.6619C137.468 36.3338 137.054 35.8748 136.759 35.2848C136.464 34.6948 136.316 34.0054 136.316 33.2166C136.316 32.4245 136.464 31.7318 136.759 31.1385C137.054 30.5452 137.468 30.0845 138.002 29.7564C138.535 29.4283 139.16 29.2642 139.876 29.2642C140.592 29.2642 141.217 29.4283 141.75 29.7564C142.284 30.0845 142.698 30.5452 142.993 31.1385C143.288 31.7318 143.436 32.4245 143.436 33.2166C143.436 34.0054 143.288 34.6948 142.993 35.2848C142.698 35.8748 142.284 36.3338 141.75 36.6619C141.217 36.9901 140.592 37.1541 139.876 37.1541ZM139.881 35.9062C140.345 35.9062 140.73 35.7836 141.034 35.5384C141.339 35.2931 141.565 34.9666 141.711 34.5589C141.86 34.1513 141.934 33.7022 141.934 33.2116C141.934 32.7244 141.86 32.277 141.711 31.8693C141.565 31.4583 141.339 31.1286 141.034 30.88C140.73 30.6314 140.345 30.5071 139.881 30.5071C139.414 30.5071 139.026 30.6314 138.718 30.88C138.413 31.1286 138.186 31.4583 138.037 31.8693C137.891 32.277 137.818 32.7244 137.818 33.2116C137.818 33.7022 137.891 34.1513 138.037 34.5589C138.186 34.9666 138.413 35.2931 138.718 35.5384C139.026 35.7836 139.414 35.9062 139.881 35.9062ZM146.581 26.8182V37H145.095V26.8182H146.581ZM155.851 29.3636V30.5568H151.68V29.3636H155.851ZM152.798 27.5341H154.285V34.7578C154.285 35.0462 154.328 35.2633 154.414 35.4091C154.5 35.5516 154.611 35.6494 154.747 35.7024C154.887 35.7521 155.037 35.777 155.2 35.777C155.319 35.777 155.423 35.7687 155.513 35.7521C155.602 35.7356 155.672 35.7223 155.722 35.7124L155.99 36.9403C155.904 36.9735 155.781 37.0066 155.622 37.0398C155.463 37.0762 155.264 37.0961 155.026 37.0994C154.635 37.1061 154.27 37.0365 153.932 36.8906C153.594 36.7448 153.32 36.5194 153.112 36.2145C152.903 35.9096 152.798 35.5268 152.798 35.0661V27.5341ZM159.146 32.4659V37H157.659V26.8182H159.126V30.6065H159.221C159.4 30.1955 159.673 29.8691 160.041 29.6271C160.409 29.3852 160.889 29.2642 161.483 29.2642C162.006 29.2642 162.464 29.3719 162.855 29.5874C163.249 29.8028 163.554 30.1243 163.77 30.5518C163.988 30.9761 164.098 31.5064 164.098 32.1428V37H162.611V32.3217C162.611 31.7616 162.467 31.3274 162.179 31.0192C161.89 30.7076 161.489 30.5518 160.975 30.5518C160.624 30.5518 160.309 30.6264 160.031 30.7756C159.756 30.9247 159.539 31.1435 159.38 31.4318C159.224 31.7169 159.146 32.0616 159.146 32.4659ZM166.081 37V29.3636H167.568V37H166.081ZM166.832 28.1854C166.574 28.1854 166.351 28.0992 166.166 27.9268C165.984 27.7512 165.892 27.5424 165.892 27.3004C165.892 27.0552 165.984 26.8464 166.166 26.674C166.351 26.4983 166.574 26.4105 166.832 26.4105C167.091 26.4105 167.311 26.4983 167.493 26.674C167.679 26.8464 167.772 27.0552 167.772 27.3004C167.772 27.5424 167.679 27.7512 167.493 27.9268C167.311 28.0992 167.091 28.1854 166.832 28.1854ZM171.054 32.4659V37H169.568V29.3636H170.994V30.6065H171.089C171.265 30.2022 171.54 29.8774 171.914 29.6321C172.292 29.3868 172.768 29.2642 173.341 29.2642C173.861 29.2642 174.317 29.3736 174.708 29.5923C175.099 29.8078 175.403 30.1293 175.618 30.5568C175.834 30.9844 175.941 31.513 175.941 32.1428V37H174.455V32.3217C174.455 31.7682 174.311 31.3357 174.022 31.0241C173.734 30.7093 173.338 30.5518 172.834 30.5518C172.489 30.5518 172.183 30.6264 171.914 30.7756C171.649 30.9247 171.439 31.1435 171.283 31.4318C171.13 31.7169 171.054 32.0616 171.054 32.4659ZM181.137 40.0227C180.53 40.0227 180.008 39.9432 179.57 39.7841C179.136 39.625 178.782 39.4145 178.507 39.1527C178.231 38.8909 178.026 38.6042 177.89 38.2926L179.168 37.7656C179.257 37.9115 179.377 38.0656 179.526 38.228C179.678 38.3937 179.884 38.5346 180.142 38.6506C180.404 38.7666 180.74 38.8246 181.151 38.8246C181.715 38.8246 182.181 38.687 182.548 38.4119C182.916 38.1402 183.1 37.706 183.1 37.1094V35.608H183.006C182.916 35.7704 182.787 35.951 182.618 36.1499C182.452 36.3487 182.224 36.5211 181.932 36.6669C181.64 36.8127 181.261 36.8857 180.794 36.8857C180.19 36.8857 179.647 36.7448 179.163 36.4631C178.682 36.178 178.301 35.7588 178.019 35.2053C177.741 34.6484 177.602 33.964 177.602 33.152C177.602 32.34 177.739 31.6439 178.014 31.0639C178.293 30.4839 178.674 30.0398 179.158 29.7315C179.642 29.42 180.19 29.2642 180.803 29.2642C181.277 29.2642 181.66 29.3438 181.952 29.5028C182.244 29.6586 182.471 29.8409 182.633 30.0497C182.799 30.2585 182.926 30.4425 183.016 30.6016H183.125V29.3636H184.582V37.169C184.582 37.8253 184.429 38.3639 184.124 38.7848C183.82 39.2057 183.407 39.5173 182.887 39.7195C182.369 39.9216 181.786 40.0227 181.137 40.0227ZM181.122 35.6527C181.549 35.6527 181.91 35.5533 182.205 35.3544C182.504 35.1522 182.729 34.8639 182.882 34.4893C183.037 34.1115 183.115 33.6591 183.115 33.1321C183.115 32.6184 183.039 32.166 182.887 31.7749C182.734 31.3838 182.51 31.0788 182.215 30.8601C181.92 30.638 181.556 30.527 181.122 30.527C180.674 30.527 180.301 30.643 180.003 30.875C179.705 31.1037 179.479 31.4152 179.327 31.8097C179.178 32.2041 179.103 32.6449 179.103 33.1321C179.103 33.6326 179.179 34.0717 179.332 34.4496C179.484 34.8274 179.71 35.1224 180.008 35.3345C180.31 35.5466 180.681 35.6527 181.122 35.6527ZM192.298 31.228L190.95 31.4666C190.894 31.2943 190.805 31.1302 190.682 30.9744C190.563 30.8187 190.4 30.6911 190.195 30.5916C189.989 30.4922 189.732 30.4425 189.424 30.4425C189.003 30.4425 188.652 30.5369 188.37 30.7259C188.088 30.9115 187.948 31.1518 187.948 31.4467C187.948 31.7019 188.042 31.9074 188.231 32.0632C188.42 32.219 188.725 32.3466 189.146 32.446L190.359 32.7244C191.061 32.8868 191.585 33.1371 191.93 33.4751C192.275 33.8132 192.447 34.2524 192.447 34.7926C192.447 35.25 192.314 35.6577 192.049 36.0156C191.787 36.3703 191.421 36.6487 190.95 36.8509C190.483 37.053 189.941 37.1541 189.325 37.1541C188.47 37.1541 187.772 36.9718 187.232 36.6072C186.691 36.2393 186.36 35.7173 186.237 35.0412L187.674 34.8224C187.764 35.197 187.948 35.4804 188.226 35.6726C188.504 35.8615 188.867 35.956 189.315 35.956C189.802 35.956 190.191 35.8549 190.483 35.6527C190.775 35.4472 190.921 35.197 190.921 34.902C190.921 34.6634 190.831 34.4628 190.652 34.3004C190.477 34.138 190.206 34.0154 189.842 33.9325L188.549 33.6491C187.837 33.4867 187.31 33.2282 186.968 32.8736C186.63 32.5189 186.461 32.0698 186.461 31.5263C186.461 31.0755 186.587 30.6811 186.839 30.343C187.091 30.005 187.439 29.7415 187.883 29.5526C188.327 29.3603 188.836 29.2642 189.409 29.2642C190.235 29.2642 190.884 29.4432 191.358 29.8011C191.832 30.1558 192.145 30.6314 192.298 31.228ZM195.061 37.0945C194.789 37.0945 194.555 36.9983 194.36 36.8061C194.164 36.6106 194.066 36.3752 194.066 36.1001C194.066 35.8284 194.164 35.5964 194.36 35.4041C194.555 35.2086 194.789 35.1108 195.061 35.1108C195.333 35.1108 195.566 35.2086 195.762 35.4041C195.957 35.5964 196.055 35.8284 196.055 36.1001C196.055 36.2824 196.009 36.4498 195.916 36.6023C195.826 36.7514 195.707 36.8707 195.558 36.9602C195.409 37.0497 195.243 37.0945 195.061 37.0945Z" fill="#CCCCCC" fill-opacity="0.7"/>
</svg>
